<?xml version="1.0" encoding="utf-8" standalone="no"?>
<!DOCTYPE svg PUBLIC "-//W3C//DTD SVG 1.1//EN"
  "http://www.w3.org/Graphics/SVG/1.1/DTD/svg11.dtd">
<svg xmlns:xlink="http://www.w3.org/1999/xlink" width="418.33375pt" height="319.9555pt" viewBox="0 0 418.33375 319.9555" xmlns="http://www.w3.org/2000/svg" version="1.1">
 <metadata>
  <rdf:RDF xmlns:dc="http://purl.org/dc/elements/1.1/" xmlns:cc="http://creativecommons.org/ns#" xmlns:rdf="http://www.w3.org/1999/02/22-rdf-syntax-ns#">
   <cc:Work>
    <dc:type rdf:resource="http://purl.org/dc/dcmitype/StillImage"/>
    <dc:date>2024-05-23T10:49:06.637985</dc:date>
    <dc:format>image/svg+xml</dc:format>
    <dc:creator>
     <cc:Agent>
      <dc:title>Matplotlib v3.9.0, https://matplotlib.org/</dc:title>
     </cc:Agent>
    </dc:creator>
   </cc:Work>
  </rdf:RDF>
 </metadata>
 <defs>
  <style type="text/css">*{stroke-linejoin: round; stroke-linecap: butt}</style>
 </defs>
 <g id="figure_1">
  <g id="patch_1">
   <path d="M 0 319.9555 
L 418.33375 319.9555 
L 418.33375 0 
L 0 0 
z
" style="fill: #ffffff"/>
  </g>
  <g id="axes_1">
   <g id="patch_2">
    <path d="M 54.01375 296.077375 
L 411.13375 296.077375 
L 411.13375 29.965375 
L 54.01375 29.965375 
z
" style="fill: #ffffff"/>
   </g>
   <g id="patch_3">
    <path d="M 70.246477 296.077375 
L 84.361892 296.077375 
L 84.361892 212.917375 
L 70.246477 212.917375 
z
" clip-path="url(#p523332cfa5)" style="fill: #003f5c"/>
   </g>
   <g id="patch_4">
    <path d="M 154.938967 296.077375 
L 169.054382 296.077375 
L 169.054382 176.881375 
L 154.938967 176.881375 
z
" clip-path="url(#p523332cfa5)" style="fill: #003f5c"/>
   </g>
   <g id="patch_5">
    <path d="M 239.631458 296.077375 
L 253.746873 296.077375 
L 253.746873 182.425375 
L 239.631458 182.425375 
z
" clip-path="url(#p523332cfa5)" style="fill: #003f5c"/>
   </g>
   <g id="patch_6">
    <path d="M 324.323948 296.077375 
L 338.439363 296.077375 
L 338.439363 262.813375 
L 324.323948 262.813375 
z
" clip-path="url(#p523332cfa5)" style="fill: #003f5c"/>
   </g>
   <g id="patch_7">
    <path d="M 84.361892 296.077375 
L 98.477307 296.077375 
L 98.477307 185.197375 
L 84.361892 185.197375 
z
" clip-path="url(#p523332cfa5)" style="fill: #a94064"/>
   </g>
   <g id="patch_8">
    <path d="M 169.054382 296.077375 
L 183.169797 296.077375 
L 183.169797 182.425375 
L 169.054382 182.425375 
z
" clip-path="url(#p523332cfa5)" style="fill: #a94064"/>
   </g>
   <g id="patch_9">
    <path d="M 253.746873 296.077375 
L 267.862288 296.077375 
L 267.862288 215.689375 
L 253.746873 215.689375 
z
" clip-path="url(#p523332cfa5)" style="fill: #a94064"/>
   </g>
   <g id="patch_10">
    <path d="M 338.439363 296.077375 
L 352.554778 296.077375 
L 352.554778 232.321375 
L 338.439363 232.321375 
z
" clip-path="url(#p523332cfa5)" style="fill: #a94064"/>
   </g>
   <g id="patch_11">
    <path d="M 98.477307 296.077375 
L 112.592722 296.077375 
L 112.592722 157.477375 
L 98.477307 157.477375 
z
" clip-path="url(#p523332cfa5)" style="fill: #bc5090"/>
   </g>
   <g id="patch_12">
    <path d="M 183.169797 296.077375 
L 197.285212 296.077375 
L 197.285212 140.845375 
L 183.169797 140.845375 
z
" clip-path="url(#p523332cfa5)" style="fill: #bc5090"/>
   </g>
   <g id="patch_13">
    <path d="M 267.862288 296.077375 
L 281.977703 296.077375 
L 281.977703 190.741375 
L 267.862288 190.741375 
z
" clip-path="url(#p523332cfa5)" style="fill: #bc5090"/>
   </g>
   <g id="patch_14">
    <path d="M 352.554778 296.077375 
L 366.670193 296.077375 
L 366.670193 257.269375 
L 352.554778 257.269375 
z
" clip-path="url(#p523332cfa5)" style="fill: #bc5090"/>
   </g>
   <g id="patch_15">
    <path d="M 112.592722 296.077375 
L 126.708137 296.077375 
L 126.708137 185.197375 
L 112.592722 185.197375 
z
" clip-path="url(#p523332cfa5)" style="fill: #ff6361"/>
   </g>
   <g id="patch_16">
    <path d="M 197.285212 296.077375 
L 211.400627 296.077375 
L 211.400627 190.741375 
L 197.285212 190.741375 
z
" clip-path="url(#p523332cfa5)" style="fill: #ff6361"/>
   </g>
   <g id="patch_17">
    <path d="M 281.977703 296.077375 
L 296.093118 296.077375 
L 296.093118 118.669375 
L 281.977703 118.669375 
z
" clip-path="url(#p523332cfa5)" style="fill: #ff6361"/>
   </g>
   <g id="patch_18">
    <path d="M 366.670193 296.077375 
L 380.785608 296.077375 
L 380.785608 151.933375 
L 366.670193 151.933375 
z
" clip-path="url(#p523332cfa5)" style="fill: #ff6361"/>
   </g>
   <g id="patch_19">
    <path d="M 126.708137 296.077375 
L 140.823552 296.077375 
L 140.823552 154.705375 
L 126.708137 154.705375 
z
" clip-path="url(#p523332cfa5)" style="fill: #ffa600"/>
   </g>
   <g id="patch_20">
    <path d="M 211.400627 296.077375 
L 225.516042 296.077375 
L 225.516042 151.933375 
L 211.400627 151.933375 
z
" clip-path="url(#p523332cfa5)" style="fill: #ffa600"/>
   </g>
   <g id="patch_21">
    <path d="M 296.093118 296.077375 
L 310.208533 296.077375 
L 310.208533 262.813375 
L 296.093118 262.813375 
z
" clip-path="url(#p523332cfa5)" style="fill: #ffa600"/>
   </g>
   <g id="patch_22">
    <path d="M 380.785608 296.077375 
L 394.901023 296.077375 
L 394.901023 226.777375 
L 380.785608 226.777375 
z
" clip-path="url(#p523332cfa5)" style="fill: #ffa600"/>
   </g>
   <g id="matplotlib.axis_1">
    <g id="xtick_1">
     <g id="line2d_1">
      <defs>
       <path id="m96b98e0ccb" d="M 0 0 
L 0 3.5 
" style="stroke: #000000; stroke-width: 0.8"/>
      </defs>
      <g>
       <use xlink:href="#m96b98e0ccb" x="105.535015" y="296.077375" style="stroke: #000000; stroke-width: 0.8"/>
      </g>
     </g>
     <g id="text_1">
      <!-- occupation -->
      <g transform="translate(77.992827 310.675812) scale(0.1 -0.1)">
       <defs>
        <path id="DejaVuSans-6f" d="M 1959 3097 
Q 1497 3097 1228 2736 
Q 959 2375 959 1747 
Q 959 1119 1226 758 
Q 1494 397 1959 397 
Q 2419 397 2687 759 
Q 2956 1122 2956 1747 
Q 2956 2369 2687 2733 
Q 2419 3097 1959 3097 
z
M 1959 3584 
Q 2709 3584 3137 3096 
Q 3566 2609 3566 1747 
Q 3566 888 3137 398 
Q 2709 -91 1959 -91 
Q 1206 -91 779 398 
Q 353 888 353 1747 
Q 353 2609 779 3096 
Q 1206 3584 1959 3584 
z
" transform="scale(0.015625)"/>
        <path id="DejaVuSans-63" d="M 3122 3366 
L 3122 2828 
Q 2878 2963 2633 3030 
Q 2388 3097 2138 3097 
Q 1578 3097 1268 2742 
Q 959 2388 959 1747 
Q 959 1106 1268 751 
Q 1578 397 2138 397 
Q 2388 397 2633 464 
Q 2878 531 3122 666 
L 3122 134 
Q 2881 22 2623 -34 
Q 2366 -91 2075 -91 
Q 1284 -91 818 406 
Q 353 903 353 1747 
Q 353 2603 823 3093 
Q 1294 3584 2113 3584 
Q 2378 3584 2631 3529 
Q 2884 3475 3122 3366 
z
" transform="scale(0.015625)"/>
        <path id="DejaVuSans-75" d="M 544 1381 
L 544 3500 
L 1119 3500 
L 1119 1403 
Q 1119 906 1312 657 
Q 1506 409 1894 409 
Q 2359 409 2629 706 
Q 2900 1003 2900 1516 
L 2900 3500 
L 3475 3500 
L 3475 0 
L 2900 0 
L 2900 538 
Q 2691 219 2414 64 
Q 2138 -91 1772 -91 
Q 1169 -91 856 284 
Q 544 659 544 1381 
z
M 1991 3584 
L 1991 3584 
z
" transform="scale(0.015625)"/>
        <path id="DejaVuSans-70" d="M 1159 525 
L 1159 -1331 
L 581 -1331 
L 581 3500 
L 1159 3500 
L 1159 2969 
Q 1341 3281 1617 3432 
Q 1894 3584 2278 3584 
Q 2916 3584 3314 3078 
Q 3713 2572 3713 1747 
Q 3713 922 3314 415 
Q 2916 -91 2278 -91 
Q 1894 -91 1617 61 
Q 1341 213 1159 525 
z
M 3116 1747 
Q 3116 2381 2855 2742 
Q 2594 3103 2138 3103 
Q 1681 3103 1420 2742 
Q 1159 2381 1159 1747 
Q 1159 1113 1420 752 
Q 1681 391 2138 391 
Q 2594 391 2855 752 
Q 3116 1113 3116 1747 
z
" transform="scale(0.015625)"/>
        <path id="DejaVuSans-61" d="M 2194 1759 
Q 1497 1759 1228 1600 
Q 959 1441 959 1056 
Q 959 750 1161 570 
Q 1363 391 1709 391 
Q 2188 391 2477 730 
Q 2766 1069 2766 1631 
L 2766 1759 
L 2194 1759 
z
M 3341 1997 
L 3341 0 
L 2766 0 
L 2766 531 
Q 2569 213 2275 61 
Q 1981 -91 1556 -91 
Q 1019 -91 701 211 
Q 384 513 384 1019 
Q 384 1609 779 1909 
Q 1175 2209 1959 2209 
L 2766 2209 
L 2766 2266 
Q 2766 2663 2505 2880 
Q 2244 3097 1772 3097 
Q 1472 3097 1187 3025 
Q 903 2953 641 2809 
L 641 3341 
Q 956 3463 1253 3523 
Q 1550 3584 1831 3584 
Q 2591 3584 2966 3190 
Q 3341 2797 3341 1997 
z
" transform="scale(0.015625)"/>
        <path id="DejaVuSans-74" d="M 1172 4494 
L 1172 3500 
L 2356 3500 
L 2356 3053 
L 1172 3053 
L 1172 1153 
Q 1172 725 1289 603 
Q 1406 481 1766 481 
L 2356 481 
L 2356 0 
L 1766 0 
Q 1100 0 847 248 
Q 594 497 594 1153 
L 594 3053 
L 172 3053 
L 172 3500 
L 594 3500 
L 594 4494 
L 1172 4494 
z
" transform="scale(0.015625)"/>
        <path id="DejaVuSans-69" d="M 603 3500 
L 1178 3500 
L 1178 0 
L 603 0 
L 603 3500 
z
M 603 4863 
L 1178 4863 
L 1178 4134 
L 603 4134 
L 603 4863 
z
" transform="scale(0.015625)"/>
        <path id="DejaVuSans-6e" d="M 3513 2113 
L 3513 0 
L 2938 0 
L 2938 2094 
Q 2938 2591 2744 2837 
Q 2550 3084 2163 3084 
Q 1697 3084 1428 2787 
Q 1159 2491 1159 1978 
L 1159 0 
L 581 0 
L 581 3500 
L 1159 3500 
L 1159 2956 
Q 1366 3272 1645 3428 
Q 1925 3584 2291 3584 
Q 2894 3584 3203 3211 
Q 3513 2838 3513 2113 
z
" transform="scale(0.015625)"/>
       </defs>
       <use xlink:href="#DejaVuSans-6f"/>
       <use xlink:href="#DejaVuSans-63" x="61.181641"/>
       <use xlink:href="#DejaVuSans-63" x="116.162109"/>
       <use xlink:href="#DejaVuSans-75" x="171.142578"/>
       <use xlink:href="#DejaVuSans-70" x="234.521484"/>
       <use xlink:href="#DejaVuSans-61" x="297.998047"/>
       <use xlink:href="#DejaVuSans-74" x="359.277344"/>
       <use xlink:href="#DejaVuSans-69" x="398.486328"/>
       <use xlink:href="#DejaVuSans-6f" x="426.269531"/>
       <use xlink:href="#DejaVuSans-6e" x="487.451172"/>
      </g>
     </g>
    </g>
    <g id="xtick_2">
     <g id="line2d_2">
      <g>
       <use xlink:href="#m96b98e0ccb" x="190.227505" y="296.077375" style="stroke: #000000; stroke-width: 0.8"/>
      </g>
     </g>
     <g id="text_2">
      <!-- author -->
      <g transform="translate(173.750942 310.675812) scale(0.1 -0.1)">
       <defs>
        <path id="DejaVuSans-68" d="M 3513 2113 
L 3513 0 
L 2938 0 
L 2938 2094 
Q 2938 2591 2744 2837 
Q 2550 3084 2163 3084 
Q 1697 3084 1428 2787 
Q 1159 2491 1159 1978 
L 1159 0 
L 581 0 
L 581 4863 
L 1159 4863 
L 1159 2956 
Q 1366 3272 1645 3428 
Q 1925 3584 2291 3584 
Q 2894 3584 3203 3211 
Q 3513 2838 3513 2113 
z
" transform="scale(0.015625)"/>
        <path id="DejaVuSans-72" d="M 2631 2963 
Q 2534 3019 2420 3045 
Q 2306 3072 2169 3072 
Q 1681 3072 1420 2755 
Q 1159 2438 1159 1844 
L 1159 0 
L 581 0 
L 581 3500 
L 1159 3500 
L 1159 2956 
Q 1341 3275 1631 3429 
Q 1922 3584 2338 3584 
Q 2397 3584 2469 3576 
Q 2541 3569 2628 3553 
L 2631 2963 
z
" transform="scale(0.015625)"/>
       </defs>
       <use xlink:href="#DejaVuSans-61"/>
       <use xlink:href="#DejaVuSans-75" x="61.279297"/>
       <use xlink:href="#DejaVuSans-74" x="124.658203"/>
       <use xlink:href="#DejaVuSans-68" x="163.867188"/>
       <use xlink:href="#DejaVuSans-6f" x="227.246094"/>
       <use xlink:href="#DejaVuSans-72" x="288.427734"/>
      </g>
     </g>
    </g>
    <g id="xtick_3">
     <g id="line2d_3">
      <g>
       <use xlink:href="#m96b98e0ccb" x="274.919995" y="296.077375" style="stroke: #000000; stroke-width: 0.8"/>
      </g>
     </g>
     <g id="text_3">
      <!-- director -->
      <g transform="translate(255.512964 310.675812) scale(0.1 -0.1)">
       <defs>
        <path id="DejaVuSans-64" d="M 2906 2969 
L 2906 4863 
L 3481 4863 
L 3481 0 
L 2906 0 
L 2906 525 
Q 2725 213 2448 61 
Q 2172 -91 1784 -91 
Q 1150 -91 751 415 
Q 353 922 353 1747 
Q 353 2572 751 3078 
Q 1150 3584 1784 3584 
Q 2172 3584 2448 3432 
Q 2725 3281 2906 2969 
z
M 947 1747 
Q 947 1113 1208 752 
Q 1469 391 1925 391 
Q 2381 391 2643 752 
Q 2906 1113 2906 1747 
Q 2906 2381 2643 2742 
Q 2381 3103 1925 3103 
Q 1469 3103 1208 2742 
Q 947 2381 947 1747 
z
" transform="scale(0.015625)"/>
        <path id="DejaVuSans-65" d="M 3597 1894 
L 3597 1613 
L 953 1613 
Q 991 1019 1311 708 
Q 1631 397 2203 397 
Q 2534 397 2845 478 
Q 3156 559 3463 722 
L 3463 178 
Q 3153 47 2828 -22 
Q 2503 -91 2169 -91 
Q 1331 -91 842 396 
Q 353 884 353 1716 
Q 353 2575 817 3079 
Q 1281 3584 2069 3584 
Q 2775 3584 3186 3129 
Q 3597 2675 3597 1894 
z
M 3022 2063 
Q 3016 2534 2758 2815 
Q 2500 3097 2075 3097 
Q 1594 3097 1305 2825 
Q 1016 2553 972 2059 
L 3022 2063 
z
" transform="scale(0.015625)"/>
       </defs>
       <use xlink:href="#DejaVuSans-64"/>
       <use xlink:href="#DejaVuSans-69" x="63.476562"/>
       <use xlink:href="#DejaVuSans-72" x="91.259766"/>
       <use xlink:href="#DejaVuSans-65" x="130.123047"/>
       <use xlink:href="#DejaVuSans-63" x="191.646484"/>
       <use xlink:href="#DejaVuSans-74" x="246.626953"/>
       <use xlink:href="#DejaVuSans-6f" x="285.835938"/>
       <use xlink:href="#DejaVuSans-72" x="347.017578"/>
      </g>
     </g>
    </g>
    <g id="xtick_4">
     <g id="line2d_4">
      <g>
       <use xlink:href="#m96b98e0ccb" x="359.612485" y="296.077375" style="stroke: #000000; stroke-width: 0.8"/>
      </g>
     </g>
     <g id="text_4">
      <!-- country -->
      <g transform="translate(340.491391 310.675812) scale(0.1 -0.1)">
       <defs>
        <path id="DejaVuSans-79" d="M 2059 -325 
Q 1816 -950 1584 -1140 
Q 1353 -1331 966 -1331 
L 506 -1331 
L 506 -850 
L 844 -850 
Q 1081 -850 1212 -737 
Q 1344 -625 1503 -206 
L 1606 56 
L 191 3500 
L 800 3500 
L 1894 763 
L 2988 3500 
L 3597 3500 
L 2059 -325 
z
" transform="scale(0.015625)"/>
       </defs>
       <use xlink:href="#DejaVuSans-63"/>
       <use xlink:href="#DejaVuSans-6f" x="54.980469"/>
       <use xlink:href="#DejaVuSans-75" x="116.162109"/>
       <use xlink:href="#DejaVuSans-6e" x="179.541016"/>
       <use xlink:href="#DejaVuSans-74" x="242.919922"/>
       <use xlink:href="#DejaVuSans-72" x="282.128906"/>
       <use xlink:href="#DejaVuSans-79" x="323.242188"/>
      </g>
     </g>
    </g>
   </g>
   <g id="matplotlib.axis_2">
    <g id="ytick_1">
     <g id="line2d_5">
      <defs>
       <path id="macdeff03e6" d="M 0 0 
L -3.5 0 
" style="stroke: #000000; stroke-width: 0.8"/>
      </defs>
      <g>
       <use xlink:href="#macdeff03e6" x="54.01375" y="296.077375" style="stroke: #000000; stroke-width: 0.8"/>
      </g>
     </g>
     <g id="text_5">
      <!-- 0.0 -->
      <g transform="translate(24.749375 301.396281) scale(0.14 -0.14)">
       <defs>
        <path id="DejaVuSans-30" d="M 2034 4250 
Q 1547 4250 1301 3770 
Q 1056 3291 1056 2328 
Q 1056 1369 1301 889 
Q 1547 409 2034 409 
Q 2525 409 2770 889 
Q 3016 1369 3016 2328 
Q 3016 3291 2770 3770 
Q 2525 4250 2034 4250 
z
M 2034 4750 
Q 2819 4750 3233 4129 
Q 3647 3509 3647 2328 
Q 3647 1150 3233 529 
Q 2819 -91 2034 -91 
Q 1250 -91 836 529 
Q 422 1150 422 2328 
Q 422 3509 836 4129 
Q 1250 4750 2034 4750 
z
" transform="scale(0.015625)"/>
        <path id="DejaVuSans-2e" d="M 684 794 
L 1344 794 
L 1344 0 
L 684 0 
L 684 794 
z
" transform="scale(0.015625)"/>
       </defs>
       <use xlink:href="#DejaVuSans-30"/>
       <use xlink:href="#DejaVuSans-2e" x="63.623047"/>
       <use xlink:href="#DejaVuSans-30" x="95.410156"/>
      </g>
     </g>
    </g>
    <g id="ytick_2">
     <g id="line2d_6">
      <g>
       <use xlink:href="#macdeff03e6" x="54.01375" y="240.637375" style="stroke: #000000; stroke-width: 0.8"/>
      </g>
     </g>
     <g id="text_6">
      <!-- 0.2 -->
      <g transform="translate(24.749375 245.956281) scale(0.14 -0.14)">
       <defs>
        <path id="DejaVuSans-32" d="M 1228 531 
L 3431 531 
L 3431 0 
L 469 0 
L 469 531 
Q 828 903 1448 1529 
Q 2069 2156 2228 2338 
Q 2531 2678 2651 2914 
Q 2772 3150 2772 3378 
Q 2772 3750 2511 3984 
Q 2250 4219 1831 4219 
Q 1534 4219 1204 4116 
Q 875 4013 500 3803 
L 500 4441 
Q 881 4594 1212 4672 
Q 1544 4750 1819 4750 
Q 2544 4750 2975 4387 
Q 3406 4025 3406 3419 
Q 3406 3131 3298 2873 
Q 3191 2616 2906 2266 
Q 2828 2175 2409 1742 
Q 1991 1309 1228 531 
z
" transform="scale(0.015625)"/>
       </defs>
       <use xlink:href="#DejaVuSans-30"/>
       <use xlink:href="#DejaVuSans-2e" x="63.623047"/>
       <use xlink:href="#DejaVuSans-32" x="95.410156"/>
      </g>
     </g>
    </g>
    <g id="ytick_3">
     <g id="line2d_7">
      <g>
       <use xlink:href="#macdeff03e6" x="54.01375" y="185.197375" style="stroke: #000000; stroke-width: 0.8"/>
      </g>
     </g>
     <g id="text_7">
      <!-- 0.4 -->
      <g transform="translate(24.749375 190.516281) scale(0.14 -0.14)">
       <defs>
        <path id="DejaVuSans-34" d="M 2419 4116 
L 825 1625 
L 2419 1625 
L 2419 4116 
z
M 2253 4666 
L 3047 4666 
L 3047 1625 
L 3713 1625 
L 3713 1100 
L 3047 1100 
L 3047 0 
L 2419 0 
L 2419 1100 
L 313 1100 
L 313 1709 
L 2253 4666 
z
" transform="scale(0.015625)"/>
       </defs>
       <use xlink:href="#DejaVuSans-30"/>
       <use xlink:href="#DejaVuSans-2e" x="63.623047"/>
       <use xlink:href="#DejaVuSans-34" x="95.410156"/>
      </g>
     </g>
    </g>
    <g id="ytick_4">
     <g id="line2d_8">
      <g>
       <use xlink:href="#macdeff03e6" x="54.01375" y="129.757375" style="stroke: #000000; stroke-width: 0.8"/>
      </g>
     </g>
     <g id="text_8">
      <!-- 0.6 -->
      <g transform="translate(24.749375 135.076281) scale(0.14 -0.14)">
       <defs>
        <path id="DejaVuSans-36" d="M 2113 2584 
Q 1688 2584 1439 2293 
Q 1191 2003 1191 1497 
Q 1191 994 1439 701 
Q 1688 409 2113 409 
Q 2538 409 2786 701 
Q 3034 994 3034 1497 
Q 3034 2003 2786 2293 
Q 2538 2584 2113 2584 
z
M 3366 4563 
L 3366 3988 
Q 3128 4100 2886 4159 
Q 2644 4219 2406 4219 
Q 1781 4219 1451 3797 
Q 1122 3375 1075 2522 
Q 1259 2794 1537 2939 
Q 1816 3084 2150 3084 
Q 2853 3084 3261 2657 
Q 3669 2231 3669 1497 
Q 3669 778 3244 343 
Q 2819 -91 2113 -91 
Q 1303 -91 875 529 
Q 447 1150 447 2328 
Q 447 3434 972 4092 
Q 1497 4750 2381 4750 
Q 2619 4750 2861 4703 
Q 3103 4656 3366 4563 
z
" transform="scale(0.015625)"/>
       </defs>
       <use xlink:href="#DejaVuSans-30"/>
       <use xlink:href="#DejaVuSans-2e" x="63.623047"/>
       <use xlink:href="#DejaVuSans-36" x="95.410156"/>
      </g>
     </g>
    </g>
    <g id="ytick_5">
     <g id="line2d_9">
      <g>
       <use xlink:href="#macdeff03e6" x="54.01375" y="74.317375" style="stroke: #000000; stroke-width: 0.8"/>
      </g>
     </g>
     <g id="text_9">
      <!-- 0.8 -->
      <g transform="translate(24.749375 79.636281) scale(0.14 -0.14)">
       <defs>
        <path id="DejaVuSans-38" d="M 2034 2216 
Q 1584 2216 1326 1975 
Q 1069 1734 1069 1313 
Q 1069 891 1326 650 
Q 1584 409 2034 409 
Q 2484 409 2743 651 
Q 3003 894 3003 1313 
Q 3003 1734 2745 1975 
Q 2488 2216 2034 2216 
z
M 1403 2484 
Q 997 2584 770 2862 
Q 544 3141 544 3541 
Q 544 4100 942 4425 
Q 1341 4750 2034 4750 
Q 2731 4750 3128 4425 
Q 3525 4100 3525 3541 
Q 3525 3141 3298 2862 
Q 3072 2584 2669 2484 
Q 3125 2378 3379 2068 
Q 3634 1759 3634 1313 
Q 3634 634 3220 271 
Q 2806 -91 2034 -91 
Q 1263 -91 848 271 
Q 434 634 434 1313 
Q 434 1759 690 2068 
Q 947 2378 1403 2484 
z
M 1172 3481 
Q 1172 3119 1398 2916 
Q 1625 2713 2034 2713 
Q 2441 2713 2670 2916 
Q 2900 3119 2900 3481 
Q 2900 3844 2670 4047 
Q 2441 4250 2034 4250 
Q 1625 4250 1398 4047 
Q 1172 3844 1172 3481 
z
" transform="scale(0.015625)"/>
       </defs>
       <use xlink:href="#DejaVuSans-30"/>
       <use xlink:href="#DejaVuSans-2e" x="63.623047"/>
       <use xlink:href="#DejaVuSans-38" x="95.410156"/>
      </g>
     </g>
    </g>
    <g id="text_10">
     <!-- AUROC -->
     <g transform="translate(17.837812 188.195125) rotate(-90) scale(0.14 -0.14)">
      <defs>
       <path id="DejaVuSans-41" d="M 2188 4044 
L 1331 1722 
L 3047 1722 
L 2188 4044 
z
M 1831 4666 
L 2547 4666 
L 4325 0 
L 3669 0 
L 3244 1197 
L 1141 1197 
L 716 0 
L 50 0 
L 1831 4666 
z
" transform="scale(0.015625)"/>
       <path id="DejaVuSans-55" d="M 556 4666 
L 1191 4666 
L 1191 1831 
Q 1191 1081 1462 751 
Q 1734 422 2344 422 
Q 2950 422 3222 751 
Q 3494 1081 3494 1831 
L 3494 4666 
L 4128 4666 
L 4128 1753 
Q 4128 841 3676 375 
Q 3225 -91 2344 -91 
Q 1459 -91 1007 375 
Q 556 841 556 1753 
L 556 4666 
z
" transform="scale(0.015625)"/>
       <path id="DejaVuSans-52" d="M 2841 2188 
Q 3044 2119 3236 1894 
Q 3428 1669 3622 1275 
L 4263 0 
L 3584 0 
L 2988 1197 
Q 2756 1666 2539 1819 
Q 2322 1972 1947 1972 
L 1259 1972 
L 1259 0 
L 628 0 
L 628 4666 
L 2053 4666 
Q 2853 4666 3247 4331 
Q 3641 3997 3641 3322 
Q 3641 2881 3436 2590 
Q 3231 2300 2841 2188 
z
M 1259 4147 
L 1259 2491 
L 2053 2491 
Q 2509 2491 2742 2702 
Q 2975 2913 2975 3322 
Q 2975 3731 2742 3939 
Q 2509 4147 2053 4147 
L 1259 4147 
z
" transform="scale(0.015625)"/>
       <path id="DejaVuSans-4f" d="M 2522 4238 
Q 1834 4238 1429 3725 
Q 1025 3213 1025 2328 
Q 1025 1447 1429 934 
Q 1834 422 2522 422 
Q 3209 422 3611 934 
Q 4013 1447 4013 2328 
Q 4013 3213 3611 3725 
Q 3209 4238 2522 4238 
z
M 2522 4750 
Q 3503 4750 4090 4092 
Q 4678 3434 4678 2328 
Q 4678 1225 4090 567 
Q 3503 -91 2522 -91 
Q 1538 -91 948 565 
Q 359 1222 359 2328 
Q 359 3434 948 4092 
Q 1538 4750 2522 4750 
z
" transform="scale(0.015625)"/>
       <path id="DejaVuSans-43" d="M 4122 4306 
L 4122 3641 
Q 3803 3938 3442 4084 
Q 3081 4231 2675 4231 
Q 1875 4231 1450 3742 
Q 1025 3253 1025 2328 
Q 1025 1406 1450 917 
Q 1875 428 2675 428 
Q 3081 428 3442 575 
Q 3803 722 4122 1019 
L 4122 359 
Q 3791 134 3420 21 
Q 3050 -91 2638 -91 
Q 1578 -91 968 557 
Q 359 1206 359 2328 
Q 359 3453 968 4101 
Q 1578 4750 2638 4750 
Q 3056 4750 3426 4639 
Q 3797 4528 4122 4306 
z
" transform="scale(0.015625)"/>
      </defs>
      <use xlink:href="#DejaVuSans-41"/>
      <use xlink:href="#DejaVuSans-55" x="68.408203"/>
      <use xlink:href="#DejaVuSans-52" x="141.601562"/>
      <use xlink:href="#DejaVuSans-4f" x="211.083984"/>
      <use xlink:href="#DejaVuSans-43" x="289.794922"/>
     </g>
    </g>
   </g>
   <g id="LineCollection_1">
    <path d="M 77.304185 221.233375 
L 77.304185 204.601375 
" clip-path="url(#p523332cfa5)" style="fill: none; stroke: #000000; stroke-width: 1.5"/>
    <path d="M 161.996675 188.800975 
L 161.996675 164.961775 
" clip-path="url(#p523332cfa5)" style="fill: none; stroke: #000000; stroke-width: 1.5"/>
    <path d="M 246.689165 193.790575 
L 246.689165 171.060175 
" clip-path="url(#p523332cfa5)" style="fill: none; stroke: #000000; stroke-width: 1.5"/>
    <path d="M 331.381655 266.139775 
L 331.381655 259.486975 
" clip-path="url(#p523332cfa5)" style="fill: none; stroke: #000000; stroke-width: 1.5"/>
   </g>
   <g id="line2d_10">
    <defs>
     <path id="m9f45c750da" d="M 4 0 
L -4 -0 
" style="stroke: #000000"/>
    </defs>
    <g clip-path="url(#p523332cfa5)">
     <use xlink:href="#m9f45c750da" x="77.304185" y="221.233375" style="stroke: #000000"/>
     <use xlink:href="#m9f45c750da" x="161.996675" y="188.800975" style="stroke: #000000"/>
     <use xlink:href="#m9f45c750da" x="246.689165" y="193.790575" style="stroke: #000000"/>
     <use xlink:href="#m9f45c750da" x="331.381655" y="266.139775" style="stroke: #000000"/>
    </g>
   </g>
   <g id="line2d_11">
    <g clip-path="url(#p523332cfa5)">
     <use xlink:href="#m9f45c750da" x="77.304185" y="204.601375" style="stroke: #000000"/>
     <use xlink:href="#m9f45c750da" x="161.996675" y="164.961775" style="stroke: #000000"/>
     <use xlink:href="#m9f45c750da" x="246.689165" y="171.060175" style="stroke: #000000"/>
     <use xlink:href="#m9f45c750da" x="331.381655" y="259.486975" style="stroke: #000000"/>
    </g>
   </g>
   <g id="LineCollection_2">
    <path d="M 91.4196 196.285375 
L 91.4196 174.109375 
" clip-path="url(#p523332cfa5)" style="fill: none; stroke: #000000; stroke-width: 1.5"/>
    <path d="M 176.11209 193.790575 
L 176.11209 171.060175 
" clip-path="url(#p523332cfa5)" style="fill: none; stroke: #000000; stroke-width: 1.5"/>
    <path d="M 260.80458 223.728175 
L 260.80458 207.650575 
" clip-path="url(#p523332cfa5)" style="fill: none; stroke: #000000; stroke-width: 1.5"/>
    <path d="M 345.49707 238.696975 
L 345.49707 225.945775 
" clip-path="url(#p523332cfa5)" style="fill: none; stroke: #000000; stroke-width: 1.5"/>
   </g>
   <g id="line2d_12">
    <g clip-path="url(#p523332cfa5)">
     <use xlink:href="#m9f45c750da" x="91.4196" y="196.285375" style="stroke: #000000"/>
     <use xlink:href="#m9f45c750da" x="176.11209" y="193.790575" style="stroke: #000000"/>
     <use xlink:href="#m9f45c750da" x="260.80458" y="223.728175" style="stroke: #000000"/>
     <use xlink:href="#m9f45c750da" x="345.49707" y="238.696975" style="stroke: #000000"/>
    </g>
   </g>
   <g id="line2d_13">
    <g clip-path="url(#p523332cfa5)">
     <use xlink:href="#m9f45c750da" x="91.4196" y="174.109375" style="stroke: #000000"/>
     <use xlink:href="#m9f45c750da" x="176.11209" y="171.060175" style="stroke: #000000"/>
     <use xlink:href="#m9f45c750da" x="260.80458" y="207.650575" style="stroke: #000000"/>
     <use xlink:href="#m9f45c750da" x="345.49707" y="225.945775" style="stroke: #000000"/>
    </g>
   </g>
   <g id="LineCollection_3">
    <path d="M 105.535015 171.337375 
L 105.535015 143.617375 
" clip-path="url(#p523332cfa5)" style="fill: none; stroke: #000000; stroke-width: 1.5"/>
    <path d="M 190.227505 156.368575 
L 190.227505 125.322175 
" clip-path="url(#p523332cfa5)" style="fill: none; stroke: #000000; stroke-width: 1.5"/>
    <path d="M 274.919995 201.274975 
L 274.919995 180.207775 
" clip-path="url(#p523332cfa5)" style="fill: none; stroke: #000000; stroke-width: 1.5"/>
    <path d="M 359.612485 261.150175 
L 359.612485 253.388575 
" clip-path="url(#p523332cfa5)" style="fill: none; stroke: #000000; stroke-width: 1.5"/>
   </g>
   <g id="line2d_14">
    <g clip-path="url(#p523332cfa5)">
     <use xlink:href="#m9f45c750da" x="105.535015" y="171.337375" style="stroke: #000000"/>
     <use xlink:href="#m9f45c750da" x="190.227505" y="156.368575" style="stroke: #000000"/>
     <use xlink:href="#m9f45c750da" x="274.919995" y="201.274975" style="stroke: #000000"/>
     <use xlink:href="#m9f45c750da" x="359.612485" y="261.150175" style="stroke: #000000"/>
    </g>
   </g>
   <g id="line2d_15">
    <g clip-path="url(#p523332cfa5)">
     <use xlink:href="#m9f45c750da" x="105.535015" y="143.617375" style="stroke: #000000"/>
     <use xlink:href="#m9f45c750da" x="190.227505" y="125.322175" style="stroke: #000000"/>
     <use xlink:href="#m9f45c750da" x="274.919995" y="180.207775" style="stroke: #000000"/>
     <use xlink:href="#m9f45c750da" x="359.612485" y="253.388575" style="stroke: #000000"/>
    </g>
   </g>
   <g id="LineCollection_4">
    <path d="M 119.65043 196.285375 
L 119.65043 174.109375 
" clip-path="url(#p523332cfa5)" style="fill: none; stroke: #000000; stroke-width: 1.5"/>
    <path d="M 204.34292 201.274975 
L 204.34292 180.207775 
" clip-path="url(#p523332cfa5)" style="fill: none; stroke: #000000; stroke-width: 1.5"/>
    <path d="M 289.03541 136.410175 
L 289.03541 100.928575 
" clip-path="url(#p523332cfa5)" style="fill: none; stroke: #000000; stroke-width: 1.5"/>
    <path d="M 373.7279 166.347775 
L 373.7279 137.518975 
" clip-path="url(#p523332cfa5)" style="fill: none; stroke: #000000; stroke-width: 1.5"/>
   </g>
   <g id="line2d_16">
    <g clip-path="url(#p523332cfa5)">
     <use xlink:href="#m9f45c750da" x="119.65043" y="196.285375" style="stroke: #000000"/>
     <use xlink:href="#m9f45c750da" x="204.34292" y="201.274975" style="stroke: #000000"/>
     <use xlink:href="#m9f45c750da" x="289.03541" y="136.410175" style="stroke: #000000"/>
     <use xlink:href="#m9f45c750da" x="373.7279" y="166.347775" style="stroke: #000000"/>
    </g>
   </g>
   <g id="line2d_17">
    <g clip-path="url(#p523332cfa5)">
     <use xlink:href="#m9f45c750da" x="119.65043" y="174.109375" style="stroke: #000000"/>
     <use xlink:href="#m9f45c750da" x="204.34292" y="180.207775" style="stroke: #000000"/>
     <use xlink:href="#m9f45c750da" x="289.03541" y="100.928575" style="stroke: #000000"/>
     <use xlink:href="#m9f45c750da" x="373.7279" y="137.518975" style="stroke: #000000"/>
    </g>
   </g>
   <g id="LineCollection_5">
    <path d="M 133.765845 168.842575 
L 133.765845 140.568175 
" clip-path="url(#p523332cfa5)" style="fill: none; stroke: #000000; stroke-width: 1.5"/>
    <path d="M 218.458335 166.347775 
L 218.458335 137.518975 
" clip-path="url(#p523332cfa5)" style="fill: none; stroke: #000000; stroke-width: 1.5"/>
    <path d="M 303.150825 266.139775 
L 303.150825 259.486975 
" clip-path="url(#p523332cfa5)" style="fill: none; stroke: #000000; stroke-width: 1.5"/>
    <path d="M 387.843315 233.707375 
L 387.843315 219.847375 
" clip-path="url(#p523332cfa5)" style="fill: none; stroke: #000000; stroke-width: 1.5"/>
   </g>
   <g id="line2d_18">
    <g clip-path="url(#p523332cfa5)">
     <use xlink:href="#m9f45c750da" x="133.765845" y="168.842575" style="stroke: #000000"/>
     <use xlink:href="#m9f45c750da" x="218.458335" y="166.347775" style="stroke: #000000"/>
     <use xlink:href="#m9f45c750da" x="303.150825" y="266.139775" style="stroke: #000000"/>
     <use xlink:href="#m9f45c750da" x="387.843315" y="233.707375" style="stroke: #000000"/>
    </g>
   </g>
   <g id="line2d_19">
    <g clip-path="url(#p523332cfa5)">
     <use xlink:href="#m9f45c750da" x="133.765845" y="140.568175" style="stroke: #000000"/>
     <use xlink:href="#m9f45c750da" x="218.458335" y="137.518975" style="stroke: #000000"/>
     <use xlink:href="#m9f45c750da" x="303.150825" y="259.486975" style="stroke: #000000"/>
     <use xlink:href="#m9f45c750da" x="387.843315" y="219.847375" style="stroke: #000000"/>
    </g>
   </g>
   <g id="patch_23">
    <path d="M 54.01375 296.077375 
L 54.01375 29.965375 
" style="fill: none; stroke: #000000; stroke-width: 0.8; stroke-linejoin: miter; stroke-linecap: square"/>
   </g>
   <g id="patch_24">
    <path d="M 411.13375 296.077375 
L 411.13375 29.965375 
" style="fill: none; stroke: #000000; stroke-width: 0.8; stroke-linejoin: miter; stroke-linecap: square"/>
   </g>
   <g id="patch_25">
    <path d="M 54.01375 296.077375 
L 411.13375 296.077375 
" style="fill: none; stroke: #000000; stroke-width: 0.8; stroke-linejoin: miter; stroke-linecap: square"/>
   </g>
   <g id="patch_26">
    <path d="M 54.01375 29.965375 
L 411.13375 29.965375 
" style="fill: none; stroke: #000000; stroke-width: 0.8; stroke-linejoin: miter; stroke-linecap: square"/>
   </g>
   <g id="text_11">
    <!-- Multiple bar chart with CI -->
    <g transform="translate(126.595938 19.965375) scale(0.168 -0.168)">
     <defs>
      <path id="DejaVuSans-4d" d="M 628 4666 
L 1569 4666 
L 2759 1491 
L 3956 4666 
L 4897 4666 
L 4897 0 
L 4281 0 
L 4281 4097 
L 3078 897 
L 2444 897 
L 1241 4097 
L 1241 0 
L 628 0 
L 628 4666 
z
" transform="scale(0.015625)"/>
      <path id="DejaVuSans-6c" d="M 603 4863 
L 1178 4863 
L 1178 0 
L 603 0 
L 603 4863 
z
" transform="scale(0.015625)"/>
      <path id="DejaVuSans-20" transform="scale(0.015625)"/>
      <path id="DejaVuSans-62" d="M 3116 1747 
Q 3116 2381 2855 2742 
Q 2594 3103 2138 3103 
Q 1681 3103 1420 2742 
Q 1159 2381 1159 1747 
Q 1159 1113 1420 752 
Q 1681 391 2138 391 
Q 2594 391 2855 752 
Q 3116 1113 3116 1747 
z
M 1159 2969 
Q 1341 3281 1617 3432 
Q 1894 3584 2278 3584 
Q 2916 3584 3314 3078 
Q 3713 2572 3713 1747 
Q 3713 922 3314 415 
Q 2916 -91 2278 -91 
Q 1894 -91 1617 61 
Q 1341 213 1159 525 
L 1159 0 
L 581 0 
L 581 4863 
L 1159 4863 
L 1159 2969 
z
" transform="scale(0.015625)"/>
      <path id="DejaVuSans-77" d="M 269 3500 
L 844 3500 
L 1563 769 
L 2278 3500 
L 2956 3500 
L 3675 769 
L 4391 3500 
L 4966 3500 
L 4050 0 
L 3372 0 
L 2619 2869 
L 1863 0 
L 1184 0 
L 269 3500 
z
" transform="scale(0.015625)"/>
      <path id="DejaVuSans-49" d="M 628 4666 
L 1259 4666 
L 1259 0 
L 628 0 
L 628 4666 
z
" transform="scale(0.015625)"/>
     </defs>
     <use xlink:href="#DejaVuSans-4d"/>
     <use xlink:href="#DejaVuSans-75" x="86.279297"/>
     <use xlink:href="#DejaVuSans-6c" x="149.658203"/>
     <use xlink:href="#DejaVuSans-74" x="177.441406"/>
     <use xlink:href="#DejaVuSans-69" x="216.650391"/>
     <use xlink:href="#DejaVuSans-70" x="244.433594"/>
     <use xlink:href="#DejaVuSans-6c" x="307.910156"/>
     <use xlink:href="#DejaVuSans-65" x="335.693359"/>
     <use xlink:href="#DejaVuSans-20" x="397.216797"/>
     <use xlink:href="#DejaVuSans-62" x="429.003906"/>
     <use xlink:href="#DejaVuSans-61" x="492.480469"/>
     <use xlink:href="#DejaVuSans-72" x="553.759766"/>
     <use xlink:href="#DejaVuSans-20" x="594.873047"/>
     <use xlink:href="#DejaVuSans-63" x="626.660156"/>
     <use xlink:href="#DejaVuSans-68" x="681.640625"/>
     <use xlink:href="#DejaVuSans-61" x="745.019531"/>
     <use xlink:href="#DejaVuSans-72" x="806.298828"/>
     <use xlink:href="#DejaVuSans-74" x="847.412109"/>
     <use xlink:href="#DejaVuSans-20" x="886.621094"/>
     <use xlink:href="#DejaVuSans-77" x="918.408203"/>
     <use xlink:href="#DejaVuSans-69" x="1000.195312"/>
     <use xlink:href="#DejaVuSans-74" x="1027.978516"/>
     <use xlink:href="#DejaVuSans-68" x="1067.1875"/>
     <use xlink:href="#DejaVuSans-20" x="1130.566406"/>
     <use xlink:href="#DejaVuSans-43" x="1162.353516"/>
     <use xlink:href="#DejaVuSans-49" x="1232.177734"/>
    </g>
   </g>
   <g id="legend_1">
    <g id="patch_27">
     <path d="M 58.675625 59.850375 
L 406.471875 59.850375 
Q 408.071875 59.850375 408.071875 58.250375 
L 408.071875 35.565375 
Q 408.071875 33.965375 406.471875 33.965375 
L 58.675625 33.965375 
Q 57.075625 33.965375 57.075625 35.565375 
L 57.075625 58.250375 
Q 57.075625 59.850375 58.675625 59.850375 
L 58.675625 59.850375 
z
" style="fill: none; opacity: 0"/>
    </g>
    <g id="patch_28">
     <path d="M 60.275625 43.244125 
L 76.275625 43.244125 
L 76.275625 37.644125 
L 60.275625 37.644125 
z
" style="fill: #003f5c"/>
    </g>
    <g id="text_12">
     <!--  GPT-neo 1.3B -->
     <g transform="translate(82.675625 43.244125) scale(0.08 -0.08)">
      <defs>
       <path id="DejaVuSans-47" d="M 3809 666 
L 3809 1919 
L 2778 1919 
L 2778 2438 
L 4434 2438 
L 4434 434 
Q 4069 175 3628 42 
Q 3188 -91 2688 -91 
Q 1594 -91 976 548 
Q 359 1188 359 2328 
Q 359 3472 976 4111 
Q 1594 4750 2688 4750 
Q 3144 4750 3555 4637 
Q 3966 4525 4313 4306 
L 4313 3634 
Q 3963 3931 3569 4081 
Q 3175 4231 2741 4231 
Q 1884 4231 1454 3753 
Q 1025 3275 1025 2328 
Q 1025 1384 1454 906 
Q 1884 428 2741 428 
Q 3075 428 3337 486 
Q 3600 544 3809 666 
z
" transform="scale(0.015625)"/>
       <path id="DejaVuSans-50" d="M 1259 4147 
L 1259 2394 
L 2053 2394 
Q 2494 2394 2734 2622 
Q 2975 2850 2975 3272 
Q 2975 3691 2734 3919 
Q 2494 4147 2053 4147 
L 1259 4147 
z
M 628 4666 
L 2053 4666 
Q 2838 4666 3239 4311 
Q 3641 3956 3641 3272 
Q 3641 2581 3239 2228 
Q 2838 1875 2053 1875 
L 1259 1875 
L 1259 0 
L 628 0 
L 628 4666 
z
" transform="scale(0.015625)"/>
       <path id="DejaVuSans-54" d="M -19 4666 
L 3928 4666 
L 3928 4134 
L 2272 4134 
L 2272 0 
L 1638 0 
L 1638 4134 
L -19 4134 
L -19 4666 
z
" transform="scale(0.015625)"/>
       <path id="DejaVuSans-2d" d="M 313 2009 
L 1997 2009 
L 1997 1497 
L 313 1497 
L 313 2009 
z
" transform="scale(0.015625)"/>
       <path id="DejaVuSans-31" d="M 794 531 
L 1825 531 
L 1825 4091 
L 703 3866 
L 703 4441 
L 1819 4666 
L 2450 4666 
L 2450 531 
L 3481 531 
L 3481 0 
L 794 0 
L 794 531 
z
" transform="scale(0.015625)"/>
       <path id="DejaVuSans-33" d="M 2597 2516 
Q 3050 2419 3304 2112 
Q 3559 1806 3559 1356 
Q 3559 666 3084 287 
Q 2609 -91 1734 -91 
Q 1441 -91 1130 -33 
Q 819 25 488 141 
L 488 750 
Q 750 597 1062 519 
Q 1375 441 1716 441 
Q 2309 441 2620 675 
Q 2931 909 2931 1356 
Q 2931 1769 2642 2001 
Q 2353 2234 1838 2234 
L 1294 2234 
L 1294 2753 
L 1863 2753 
Q 2328 2753 2575 2939 
Q 2822 3125 2822 3475 
Q 2822 3834 2567 4026 
Q 2313 4219 1838 4219 
Q 1578 4219 1281 4162 
Q 984 4106 628 3988 
L 628 4550 
Q 988 4650 1302 4700 
Q 1616 4750 1894 4750 
Q 2613 4750 3031 4423 
Q 3450 4097 3450 3541 
Q 3450 3153 3228 2886 
Q 3006 2619 2597 2516 
z
" transform="scale(0.015625)"/>
       <path id="DejaVuSans-42" d="M 1259 2228 
L 1259 519 
L 2272 519 
Q 2781 519 3026 730 
Q 3272 941 3272 1375 
Q 3272 1813 3026 2020 
Q 2781 2228 2272 2228 
L 1259 2228 
z
M 1259 4147 
L 1259 2741 
L 2194 2741 
Q 2656 2741 2882 2914 
Q 3109 3088 3109 3444 
Q 3109 3797 2882 3972 
Q 2656 4147 2194 4147 
L 1259 4147 
z
M 628 4666 
L 2241 4666 
Q 2963 4666 3353 4366 
Q 3744 4066 3744 3513 
Q 3744 3084 3544 2831 
Q 3344 2578 2956 2516 
Q 3422 2416 3680 2098 
Q 3938 1781 3938 1306 
Q 3938 681 3513 340 
Q 3088 0 2303 0 
L 628 0 
L 628 4666 
z
" transform="scale(0.015625)"/>
      </defs>
      <use xlink:href="#DejaVuSans-20"/>
      <use xlink:href="#DejaVuSans-47" x="31.787109"/>
      <use xlink:href="#DejaVuSans-50" x="109.277344"/>
      <use xlink:href="#DejaVuSans-54" x="169.580078"/>
      <use xlink:href="#DejaVuSans-2d" x="221.539062"/>
      <use xlink:href="#DejaVuSans-6e" x="257.623047"/>
      <use xlink:href="#DejaVuSans-65" x="321.001953"/>
      <use xlink:href="#DejaVuSans-6f" x="382.525391"/>
      <use xlink:href="#DejaVuSans-20" x="443.707031"/>
      <use xlink:href="#DejaVuSans-31" x="475.494141"/>
      <use xlink:href="#DejaVuSans-2e" x="539.117188"/>
      <use xlink:href="#DejaVuSans-33" x="570.904297"/>
      <use xlink:href="#DejaVuSans-42" x="634.527344"/>
     </g>
    </g>
    <g id="patch_29">
     <path d="M 60.275625 54.986625 
L 76.275625 54.986625 
L 76.275625 49.386625 
L 60.275625 49.386625 
z
" style="fill: #a94064"/>
    </g>
    <g id="text_13">
     <!--  GPT-neo 2.7B -->
     <g transform="translate(82.675625 54.986625) scale(0.08 -0.08)">
      <defs>
       <path id="DejaVuSans-37" d="M 525 4666 
L 3525 4666 
L 3525 4397 
L 1831 0 
L 1172 0 
L 2766 4134 
L 525 4134 
L 525 4666 
z
" transform="scale(0.015625)"/>
      </defs>
      <use xlink:href="#DejaVuSans-20"/>
      <use xlink:href="#DejaVuSans-47" x="31.787109"/>
      <use xlink:href="#DejaVuSans-50" x="109.277344"/>
      <use xlink:href="#DejaVuSans-54" x="169.580078"/>
      <use xlink:href="#DejaVuSans-2d" x="221.539062"/>
      <use xlink:href="#DejaVuSans-6e" x="257.623047"/>
      <use xlink:href="#DejaVuSans-65" x="321.001953"/>
      <use xlink:href="#DejaVuSans-6f" x="382.525391"/>
      <use xlink:href="#DejaVuSans-20" x="443.707031"/>
      <use xlink:href="#DejaVuSans-32" x="475.494141"/>
      <use xlink:href="#DejaVuSans-2e" x="539.117188"/>
      <use xlink:href="#DejaVuSans-37" x="570.904297"/>
      <use xlink:href="#DejaVuSans-42" x="634.527344"/>
     </g>
    </g>
    <g id="patch_30">
     <path d="M 154.924375 43.244125 
L 170.924375 43.244125 
L 170.924375 37.644125 
L 154.924375 37.644125 
z
" style="fill: #bc5090"/>
    </g>
    <g id="text_14">
     <!--  OPT 1.3B -->
     <g transform="translate(177.324375 43.244125) scale(0.08 -0.08)">
      <use xlink:href="#DejaVuSans-20"/>
      <use xlink:href="#DejaVuSans-4f" x="31.787109"/>
      <use xlink:href="#DejaVuSans-50" x="110.498047"/>
      <use xlink:href="#DejaVuSans-54" x="170.800781"/>
      <use xlink:href="#DejaVuSans-20" x="231.884766"/>
      <use xlink:href="#DejaVuSans-31" x="263.671875"/>
      <use xlink:href="#DejaVuSans-2e" x="327.294922"/>
      <use xlink:href="#DejaVuSans-33" x="359.082031"/>
      <use xlink:href="#DejaVuSans-42" x="422.705078"/>
     </g>
    </g>
    <g id="patch_31">
     <path d="M 232.628125 43.244125 
L 248.628125 43.244125 
L 248.628125 37.644125 
L 232.628125 37.644125 
z
" style="fill: #ff6361"/>
    </g>
    <g id="text_15">
     <!--  OPT 13B -->
     <g transform="translate(255.028125 43.244125) scale(0.08 -0.08)">
      <use xlink:href="#DejaVuSans-20"/>
      <use xlink:href="#DejaVuSans-4f" x="31.787109"/>
      <use xlink:href="#DejaVuSans-50" x="110.498047"/>
      <use xlink:href="#DejaVuSans-54" x="170.800781"/>
      <use xlink:href="#DejaVuSans-20" x="231.884766"/>
      <use xlink:href="#DejaVuSans-31" x="263.671875"/>
      <use xlink:href="#DejaVuSans-33" x="327.294922"/>
      <use xlink:href="#DejaVuSans-42" x="390.917969"/>
     </g>
    </g>
    <g id="patch_32">
     <path d="M 307.789375 43.244125 
L 323.789375 43.244125 
L 323.789375 37.644125 
L 307.789375 37.644125 
z
" style="fill: #ffa600"/>
    </g>
    <g id="text_16">
     <!--  GPT-3 davinci 002 -->
     <g transform="translate(330.189375 43.244125) scale(0.08 -0.08)">
      <defs>
       <path id="DejaVuSans-76" d="M 191 3500 
L 800 3500 
L 1894 563 
L 2988 3500 
L 3597 3500 
L 2284 0 
L 1503 0 
L 191 3500 
z
" transform="scale(0.015625)"/>
      </defs>
      <use xlink:href="#DejaVuSans-20"/>
      <use xlink:href="#DejaVuSans-47" x="31.787109"/>
      <use xlink:href="#DejaVuSans-50" x="109.277344"/>
      <use xlink:href="#DejaVuSans-54" x="169.580078"/>
      <use xlink:href="#DejaVuSans-2d" x="221.539062"/>
      <use xlink:href="#DejaVuSans-33" x="257.623047"/>
      <use xlink:href="#DejaVuSans-20" x="321.246094"/>
      <use xlink:href="#DejaVuSans-64" x="353.033203"/>
      <use xlink:href="#DejaVuSans-61" x="416.509766"/>
      <use xlink:href="#DejaVuSans-76" x="477.789062"/>
      <use xlink:href="#DejaVuSans-69" x="536.96875"/>
      <use xlink:href="#DejaVuSans-6e" x="564.751953"/>
      <use xlink:href="#DejaVuSans-63" x="628.130859"/>
      <use xlink:href="#DejaVuSans-69" x="683.111328"/>
      <use xlink:href="#DejaVuSans-20" x="710.894531"/>
      <use xlink:href="#DejaVuSans-30" x="742.681641"/>
      <use xlink:href="#DejaVuSans-30" x="806.304688"/>
      <use xlink:href="#DejaVuSans-32" x="869.927734"/>
     </g>
    </g>
   </g>
  </g>
 </g>
 <defs>
  <clipPath id="p523332cfa5">
   <rect x="54.01375" y="29.965375" width="357.12" height="266.112"/>
  </clipPath>
 </defs>
</svg>
